<?xml version="1.0" encoding="utf-8"?>
<!-- Generator: Adobe Illustrator 25.2.0, SVG Export Plug-In . SVG Version: 6.00 Build 0)  -->
<svg version="1.1" id="Layer_1" xmlns="http://www.w3.org/2000/svg" xmlns:xlink="http://www.w3.org/1999/xlink" x="0px" y="0px"
	 viewBox="0 0 303.6 330.1" style="enable-background:new 0 0 303.6 330.1;" xml:space="preserve">
<style type="text/css">
	.st0{opacity:0.1;}
	.st1{fill:#E3A140;}
	.st2{fill:#FFFFFF;}
</style>
<g class="st0">
	<path class="st1" d="M189.3,242.6c0-0.1,0.1-0.2,0.1-0.2c8.9-0.1,17.3-4,23.6-11c8.7-9.7,11.7-23.3,9-35.7
		c9.5-6.7,15.8-18.5,15.8-31.8c0-10.5-3.9-20-10.2-26.9c1.4-9.7-0.6-19.5-5.7-27.6c-5.2-8.3-13.1-13.8-22.1-15.5c-0.1,0-0.2,0-0.3,0
		c-3.9-8.9-10.6-15.6-19-19c-8.6-3.4-17.9-3-26.1,1.3c-0.1,0-0.2,0.1-0.2,0.1c-7.8-4.8-16.8-6-25.5-3.5c-8.8,2.6-16.2,8.9-20.7,17.6
		c0,0.1-0.1,0.2-0.1,0.3c-8.5,1-16.7,5.4-22.7,13.2c-5.4,7.1-8,15.7-8,24.2c0,1.2,0.1,2.4,0.2,3.6c-6.8,6.5-10.9,15.4-11.7,25.2
		c-0.1,1.1-0.1,2.2-0.1,3.4c0,8.8,2.8,17.3,8,24.2c0.1,0.1,0.1,0.1,0.2,0.2c-0.7,3.1-1.1,6.2-1.1,9.3c0,6.5,1.6,13,4.6,18.8
		c4.6,8.7,11.9,15,20.7,17.6c0.1,0,0.2,0,0.3,0.1c3.2,9.2,9.4,16.6,17.5,20.7c8.3,4.3,17.5,4.7,26.1,1.3c0.1,0,0.2-0.1,0.3-0.1
		c7.1,5.3,16,7.7,25.1,5.9C176.3,256.4,184.1,250.9,189.3,242.6z M164.8,231.3c3.4,3.8,7.4,6.6,11.7,8.5c-3.4,2.6-7.2,4.4-11.4,5.2
		c-3.9,0.8-7.9,0.6-11.7-0.4c3.2-3.3,5.9-7.3,7.8-11.8l-1-0.5c-2,4.6-4.7,8.7-8.1,12c-2.6-0.8-5.2-2.1-7.6-3.8
		c6.8-3.2,12.3-9,15.4-16.4l-1-0.5c-3.2,7.7-8.9,13.2-15.6,16.1c-6.2-4.9-10.4-12.1-11.7-20.4l-1,0.2c1.3,8.4,5.4,15.7,11.6,20.7
		c-2.6,1-5.4,1.6-8.2,1.7c-2.7-4.2-4.6-9.1-5.4-14.5l-1,0.2c0.8,5.3,2.7,10.1,5.2,14.4c-4,0-8.1-1-12-3c-3.6-1.9-6.8-4.5-9.4-7.7
		c4.4-0.6,8.6-2.2,12.5-4.7l-0.5-1c-4,2.6-8.3,4.1-12.8,4.7c-1.7-2.4-3.2-5-4.2-7.9c7,1.7,14.5,0.6,21.2-3.7l-0.2-0.4l0.3-0.1
		c3.1-0.9,5.8-2.3,7.9-4c0.8,5.2,2.6,8.7,2.7,8.8l0.3,0.5l0.4-0.3c3.4-2.1,5.9-4.6,7.7-7.3c2.1,5.7,5.3,9,5.4,9l0.4,0.4l0.4-0.4
		c2.3-2.5,3.9-5.2,5.1-7.9c2.2,2.9,4.4,4.7,5.5,5.5l-0.4,0.5c5.6,6.2,12.9,9.4,20.3,9.6c-1.7,2.5-3.6,4.7-5.8,6.6
		c-4.5-1.8-8.5-4.7-12-8.5L164.8,231.3z M151.2,245.2c-2.6,2.4-5.6,4.3-8.9,5.7c-2.8-2.2-5.3-4.8-7.4-7.9c2.8-0.2,5.6-0.8,8.3-1.9
		c0.1,0,0.1-0.1,0.2-0.1C145.9,242.8,148.5,244.2,151.2,245.2z M99.2,229.3c-1.2-3.6-1.8-7.3-2-11.2c2.5,1.7,5.2,2.9,8,3.8
		c1,3,2.5,5.8,4.2,8.4C106,230.5,102.6,230.2,99.2,229.3z M96.9,196.5c-4.6-0.4-8.9-1.9-12.9-4.2c0-0.7-0.1-1.4-0.1-2.2
		c0-2.4,0.2-4.7,0.7-7c4.9,5.8,11.6,9.7,19.2,10.4l0.1-1.2c-7.6-0.7-14.3-4.7-19-10.6c1.9-7.8,6.5-14.8,13.4-19.2l-0.5-1
		c-6.9,4.4-11.6,11.3-13.7,19.1c-1.8-2.4-3.2-5.1-4.3-8c2.7-4.3,6.3-7.9,10.5-10.5l-0.5-1c-4.1,2.6-7.6,6.1-10.4,10.2
		c-1.3-4.2-1.9-8.7-1.5-13.4c0.4-4.5,1.5-8.6,3.4-12.3c2,4.2,4.8,8,8.2,11.3l0.7-0.9c-3.5-3.3-6.3-7.2-8.3-11.6
		c1.4-2.7,3.2-5.1,5.3-7.1c1,8.1,4.7,15.4,10.4,20.7l0.7-0.9c-5.7-5.3-9.3-12.6-10.1-20.7c5.6-5.2,13.1-8,20.9-7.3l0.1-1.2
		c-7.9-0.8-15.4,2-21.1,7c-0.2-3.2,0-6.3,0.7-9.3c4.4-1.8,9.2-2.4,14-2l0.1-1.2c-4.7-0.5-9.4,0.2-13.8,1.8c1.1-4.3,3-8.4,5.7-11.9
		c2.6-3.4,5.7-6.1,9.1-7.9c-0.2,1.5-0.3,3.1-0.3,4.6c0,3.3,0.4,6.6,1.2,9.8l1-0.3c-1.2-4.9-1.4-9.9-0.8-14.7
		c2.6-1.3,5.3-2.1,8.1-2.5c-2.1,4.6-3.3,9.7-3.3,15c0,2.8,0.3,5.7,1,8.5l1-0.3c-2-8.2-0.9-16.5,2.5-23.4c7.3-0.7,14.8,1.7,20.9,7.3
		l0.7-0.9c-6.1-5.6-13.6-8.1-20.9-7.6c1.5-2.7,3.3-5.1,5.4-7.2c4.5,1.3,8.7,3.7,12.5,7.2l0.7-0.9c-3.7-3.4-7.9-5.8-12.2-7.2
		c3.1-2.8,6.7-5,10.8-6.2c3.8-1.1,7.7-1.4,11.6-0.8c-2.9,3.6-5.2,7.8-6.7,12.4l1,0.4c1.6-4.8,4-9,7-12.6c2.7,0.6,5.4,1.6,8,3.1
		c-6.6,3.8-11.5,10.1-14.1,17.8l1,0.4c2.5-7.7,7.6-13.9,14.2-17.6c6.6,4.2,11.3,11.1,13.3,19.2l1-0.3c-2-8.2-6.7-15.1-13.2-19.5
		c2.6-1.3,5.3-2.1,8.1-2.5c3,4,5.2,8.7,6.5,13.8l1-0.3c-1.2-5.1-3.4-9.7-6.2-13.7c4.1-0.4,8.2,0.2,12.1,1.8c3.7,1.5,7,3.8,9.8,6.7
		c-4.3,1.1-8.3,3-12,5.9l0.6,1c3.8-2.9,7.9-4.9,12.3-5.9c2,2.2,3.6,4.8,4.9,7.6c-7.1-1-14.5,0.8-20.8,5.7l0.6,1
		c6.3-4.9,13.7-6.5,20.8-5.4c3.2,7.7,3.5,16.2,0.9,24.2l1,0.4c2.6-8,2.4-16.6-0.7-24.3c2.7,0.6,5.4,1.6,7.9,3.1
		c0.4,5.2-0.2,10.4-1.9,15.4l1,0.4c1.6-4.9,2.3-10.1,2-15.1c3.5,2.2,6.6,5.3,9,9.2c2.3,3.6,3.8,7.6,4.6,11.7
		c-4-1.8-8.4-2.8-12.9-2.8v1.2c4.7,0,9.1,1.1,13.2,3c0.4,3.1,0.5,6.2,0.1,9.3c-5.3-5.3-12.3-8.5-20-8.5v1.2c7.7,0,14.6,3.3,19.8,8.8
		c-1.3,8-5.3,15.4-11.8,20.4l0.6,1c6.5-5,10.6-12.4,12.1-20.4c1.9,2.2,3.6,4.7,4.9,7.5c-2.4,4.5-5.6,8.4-9.6,11.5l0.6,1
		c3.9-3,7.1-6.8,9.5-11.2c1.7,4,2.6,8.5,2.6,13.3c0,8.2-2.8,15.7-7.5,21.4c-1.4-2.6-3.1-5.1-5.2-7.4l-0.7,0.8
		c2.1,2.3,3.8,4.8,5.2,7.4c-1.4,1.6-3,3.1-4.7,4.3c-1.3-5.2-3.9-10.2-7.6-14.3l-0.7,0.8c3.7,4,6.1,8.9,7.4,14.1
		c-4.3,2.9-9.4,4.5-14.8,4.5v1.2c5.5,0,10.7-1.7,15.1-4.5c0.5,2.2,0.7,4.4,0.7,6.6c-2.9,0.9-5.9,1.4-9.1,1.4v1.2
		c3.1,0,6.2-0.5,9.1-1.4c-0.1,7.9-2.9,15.8-8.4,21.8c-2.9,3.2-6.2,5.5-9.7,7.1c0.9-4.7,1-9.7,0.3-14.6l-1,0.2
		c0.8,5,0.6,10.1-0.4,14.9c-2.7,1-5.4,1.6-8.2,1.7c3.9-6.9,5.4-15.1,4.1-23.2l-1,0.2c1.3,8.1-0.3,16.2-4.4,23
		c-6.9,0-13.8-2.8-19.3-8.2l0.2-0.3c2-3.7,3-7.2,3.4-10.6c4.4,3.7,8.6,4.8,8.7,4.9l0.5,0.1l0.1-0.5c0.8-3.5,1.1-6.7,0.8-9.6
		c4.5,1.9,8.1,1.8,8.2,1.8l0.5,0l0-0.6c0.1-4.3-0.6-7.9-1.8-11c5.5,0.8,9.7-0.6,9.8-0.6l0.5-0.2l-0.1-0.5c-0.8-3.5-2.1-6.4-3.6-8.8
		c4.7-0.9,7.8-2.9,7.9-3l0.4-0.3l-0.2-0.5c-1.9-3.7-4.1-6.5-6.6-8.5c5.1-2.3,8.1-5.8,8.2-5.9l0.3-0.4l-0.4-0.4
		c-2.3-2.5-4.7-4.3-7.1-5.6c3.7-3.4,5.5-6.9,5.5-6.9l0.2-0.5l-0.4-0.3c-3.3-2.2-6.5-3.3-9.6-3.8c3.4-4.9,4.4-9.5,4.4-9.6l0.1-0.5
		l-0.5-0.1c-3.1-0.9-6-1.2-8.7-0.9c1.7-5,1.6-9,1.6-9.1l0-0.6l-0.5,0c-3.9-0.1-7.2,0.7-10,2c0.7-6.1-0.5-10.7-0.5-10.8l-0.1-0.5
		l-0.5,0.1c-3.1,0.9-5.8,2.3-7.9,4c-0.8-5.2-2.6-8.7-2.7-8.7l-0.3-0.5l-0.4,0.3c-3.4,2.1-5.9,4.6-7.7,7.3c-2.1-5.7-5.3-9-5.4-9
		l-0.4-0.4l-0.4,0.4c-2.3,2.5-3.9,5.2-5.1,7.9c-3.1-4.1-6.2-6-6.3-6.1l-0.4-0.3l-0.3,0.5c-2,3.7-3,7.2-3.4,10.6
		c-4.4-3.7-8.6-4.8-8.7-4.9l-0.5-0.1l-0.1,0.5c-0.6,2.6-0.9,5-0.9,7.3c0,0.8,0,1.5,0.1,2.3c-4.5-1.9-8.1-1.8-8.2-1.8l-0.5,0l0,0.6
		c0,0.2,0,0.4,0,0.5c0,4,0.7,7.5,1.9,10.5c-5.5-0.8-9.7,0.6-9.8,0.6l-0.5,0.2l0.1,0.5c0.8,3.5,2.1,6.4,3.6,8.8
		c-4.7,0.9-7.8,2.9-7.9,3l-0.4,0.3l0.2,0.5c1.9,3.7,4.1,6.5,6.6,8.6c-5.1,2.3-8.1,5.8-8.2,5.9l-0.3,0.4l0.4,0.4
		c2.3,2.5,4.7,4.3,7.1,5.6c-3.7,3.4-5.5,6.9-5.5,7L103,184l0.4,0.3c3.3,2.2,6.5,3.3,9.6,3.8c-3.4,4.9-4.4,9.5-4.4,9.6l-0.1,0.5
		l0.5,0.1c3.1,0.9,6,1.2,8.7,0.9c-1.6,4.6-1.6,8.4-1.6,9c0,0,0,0.1,0,0.1l0,0.6l0.5,0c3.9,0.1,7.2-0.7,10-2
		c-0.2,1.4-0.2,2.7-0.2,3.9c0,3.8,0.6,6.4,0.8,6.9c-6.6,4.2-14.2,5.2-21.1,3.3c-2.6-7.9-2.2-16.5,1-24.2l-1-0.5
		c-1.9,4.5-2.8,9.2-2.8,13.9c0,3.6,0.5,7.1,1.5,10.5c-2.7-0.9-5.3-2.1-7.6-3.8c0-5.1,1-10.4,3.1-15.3l-1-0.5c-2,4.8-3.1,9.9-3.2,15
		c-3.3-2.6-6.1-5.9-8.3-10c-2-3.9-3.2-8.1-3.7-12.3c3.9,2.2,8.2,3.6,12.6,4L96.9,196.5z M75,184.3c0.9-3.8,2.4-7.3,4.2-10.4
		c1.2,3,2.7,5.8,4.7,8.2c-0.6,2.6-0.9,5.3-0.9,8.1c0,0.5,0,1,0,1.5C80,189.7,77.3,187.2,75,184.3z M78.6,132.1
		c2.7-2.5,5.7-4.5,8.9-5.9c-0.4,2.2-0.6,4.4-0.6,6.6c0,1,0,1.9,0.1,2.9c0,0.1,0,0.1,0,0.2c-2.2,2.1-4.1,4.6-5.7,7.3
		C79.9,139.7,79,136,78.6,132.1z M119,92.5c-2.1,2.2-4,4.8-5.4,7.7c-2.9,0.3-5.8,1.1-8.5,2.4c0.6-3.8,1.8-7.4,3.5-10.9
		C112.1,91.3,115.6,91.6,119,92.5z M145.7,84.2c2.5-2.7,5.3-4.9,8.5-6.7c3.1,2,5.8,4.4,8.1,7.3c-2.8,0.5-5.6,1.4-8.2,2.7
		c-0.1,0-0.1,0.1-0.2,0.1C151.4,86,148.6,84.9,145.7,84.2z M193.6,103c-1.3-3-3-5.7-5-8.1c3.4-0.6,6.9-0.6,10.4-0.1
		c1.5,3.6,2.4,7.3,2.9,11.1C199.2,104.5,196.4,103.5,193.6,103z M226.6,137.4c-0.6,3.8-1.8,7.5-3.4,10.8c-1.4-2.8-3.2-5.4-5.2-7.7
		c0.5-3.2,0.5-6.5,0.1-9.7C221.2,132.5,224.1,134.8,226.6,137.4z M218.1,187.3c1.2,2.5,2.2,5.1,2.8,7.8c-2.2,1.5-4.5,2.6-7,3.5
		c-0.1-2.3-0.3-4.6-0.8-6.9C214.9,190.4,216.6,189,218.1,187.3z M109.8,197.4c0.4-1.4,1.6-5.3,4.4-9.2c9.6,0.7,17.6-5.7,21.7-10
		c1.2,0,2.4,0.1,3.6,0.3c-0.2,0.6-0.6,1.4-1.2,2.5c-12.2,2.9-17.7,10.7-20.3,17.2C115.6,198.4,112.8,198.2,109.8,197.4z
		 M118.3,143.1c4.3,9.5,13.3,13.9,18.7,15.7c0.6,1.1,1.1,2.3,1.6,3.6c-0.6,0.1-1.4,0.1-2.5,0.1c-8.4-10.2-17.2-11.6-23.6-10.8
		c-1.5-2.3-2.8-5-3.7-8.3C110.1,143.1,113.8,142.3,118.3,143.1z M193.4,141.6c-0.4,1.4-1.6,5.3-4.5,9.2c-9.6-0.7-17.5,5.7-21.7,10
		c-1.2,0-2.4-0.1-3.6-0.2c0.2-0.6,0.6-1.4,1.2-2.5c12.2-2.9,17.7-10.7,20.3-17.2C187.6,140.6,190.4,140.8,193.4,141.6z M184.9,195.9
		c-4.3-9.6-13.3-13.9-18.7-15.8c-0.6-1.1-1.1-2.3-1.6-3.6c0.6-0.1,1.4-0.1,2.5-0.1c8.4,10.2,17.2,11.6,23.6,10.8
		c1.5,2.3,2.8,5,3.7,8.3C193.1,195.9,189.4,196.7,184.9,195.9z M159.4,186.8c0-1.3,0.1-2.6,0.2-4c0.5,0.3,1.3,0.7,2.2,1.3
		c2.7,13.5,9.7,19.6,15.6,22.4c0.3,2.8,0.2,5.9-0.6,9.2c-1.3-0.4-4.8-1.8-8.3-5C169.1,200.1,163.3,191.4,159.4,186.8z M167.5,209.7
		c-4.1-4.1-7.8-10.7-8-21.2C163,193,167.7,200.6,167.5,209.7z M155.3,183.6c-0.4,1-0.7,1.9-1,2.8c-0.8-1.4-1.3-2.2-1.4-2.2l-0.4-0.6
		l-0.4,0.6c-0.7,1-1.4,2.1-1.9,3.1c-0.5-2-0.9-3.2-0.9-3.2l-0.3-0.7l-0.6,0.5c-0.7,0.6-1.5,1.3-2.1,1.9c0-1.6-0.2-2.6-0.2-2.7
		l-0.1-0.8l-0.6,0.3c-1.1,0.5-2.1,1-3.1,1.6c0.5-2,0.7-3.3,0.7-3.3l0.1-0.8l-0.7,0.1c-0.9,0.1-1.8,0.3-2.7,0.5
		c0.7-1.4,1-2.4,1.1-2.4l0.3-0.7l-0.7-0.1c-1.2-0.2-2.3-0.3-3.4-0.3c1.3-1.4,2-2.5,2.1-2.5l0.4-0.6l-0.6-0.3
		c-0.9-0.4-1.7-0.8-2.5-1.1c1.3-0.9,2-1.5,2-1.5l0.5-0.5l-0.6-0.5c-0.9-0.8-1.9-1.5-2.8-2.1c1.8-0.5,2.9-1,2.9-1l0.6-0.3l-0.4-0.6
		c-0.6-0.8-1.1-1.6-1.7-2.3c1.5-0.1,2.4-0.2,2.4-0.2l0.7-0.1l-0.3-0.7c-0.5-1.2-0.9-2.3-1.5-3.4c1.8,0.5,3,0.7,3,0.7l0.7,0.1
		l-0.1-0.8c-0.1-1-0.3-2-0.4-3c1.3,0.8,2.2,1.2,2.2,1.2l0.6,0.3l0.1-0.8c0.1-1.3,0.2-2.5,0.3-3.7c1.3,1.4,2.2,2.3,2.3,2.3l0.5,0.5
		l0.3-0.7c0.4-1,0.7-1.9,1-2.8c0.8,1.4,1.3,2.2,1.4,2.2l0.4,0.6l0.4-0.6c0.7-1,1.4-2.1,1.9-3.1c0.5,2,0.9,3.2,0.9,3.2l0.3,0.7
		l0.6-0.5c0.7-0.6,1.5-1.3,2.1-1.9c0.1,1.6,0.2,2.6,0.2,2.7l0.1,0.8l0.6-0.3c1.1-0.5,2.1-1,3.1-1.6c-0.5,2-0.7,3.3-0.7,3.3l-0.1,0.8
		l0.7-0.1c0.9-0.1,1.8-0.3,2.7-0.5c-0.7,1.4-1.1,2.4-1.1,2.4l-0.3,0.7l0.7,0.1c1.2,0.2,2.3,0.3,3.4,0.3c-1.3,1.4-2,2.5-2.1,2.5
		l-0.4,0.6l0.6,0.3c0.9,0.4,1.7,0.8,2.5,1.1c-1.3,0.9-2,1.5-2,1.5l-0.5,0.5l0.6,0.5c0.9,0.8,1.9,1.5,2.8,2.1c-1.8,0.5-2.9,1-2.9,1
		l-0.6,0.3l0.4,0.6c0.6,0.8,1.1,1.6,1.7,2.3c-1.5,0.1-2.4,0.2-2.4,0.2l-0.7,0.1l0.3,0.7c0.5,1.2,0.9,2.3,1.4,3.4
		c-1.8-0.5-2.9-0.7-3-0.7l-0.7-0.1l0.1,0.8c0.1,1,0.3,2,0.4,3c-1.3-0.8-2.1-1.2-2.2-1.2l-0.6-0.3l-0.1,0.8c-0.1,1.3-0.2,2.5-0.3,3.7
		c-1.3-1.4-2.2-2.3-2.3-2.3l-0.5-0.5L155.3,183.6z M163.1,184.9c4.8,3.3,12.4,9.9,14.1,20.2C171.9,202.4,165.8,196.7,163.1,184.9z
		 M162.8,183.3c-0.2-1-0.3-2-0.5-3.1c0.7,0.1,1.8,0.4,3.2,0.9c5.4,10.7,12.7,14.6,18.7,15.8c1.3,3,2,6.5,2.1,10.7
		c-1.2-0.1-4.2-0.4-7.8-1.9C176.8,193.8,167.8,186.5,162.8,183.3z M183.4,195.6c-6.8-1.7-12.3-6.4-16.4-14c5.1,1.9,12.7,6,16.6,14
		C183.5,195.6,183.5,195.6,183.4,195.6z M188.2,186.3c-7.2,0.2-13.8-3.1-19.6-9.9c5.7,0.2,15.3,1.7,21.4,9.7
		C189.4,186.3,188.8,186.3,188.2,186.3z M167.6,175.3c-0.6-0.8-1.2-1.6-1.8-2.4c0.6-0.2,1.7-0.6,3.1-1c9.5,6.2,17.6,5.6,23.3,3.3
		c2.5,1.9,4.7,4.5,6.6,8.1c-1,0.6-3.8,2.1-7.6,2.7C184.5,176.6,173.4,175.3,167.6,175.3z M191,174.5c-6.7,2.3-13.6,1.3-20.6-3
		c5.3-1.2,13.7-1.8,20.7,3C191.1,174.5,191,174.5,191,174.5z M169.1,170.7c-1-0.7-2-1.4-3-2.2c0.5-0.4,1.2-0.9,2.1-1.5
		c11.9,4.2,20.2,0.6,25.3-3.7c2.4,1.1,4.7,2.8,7,5.2c-1,1-3.8,3.7-8,5.5C184.4,168,174.6,169.2,169.1,170.7z M190.9,163.9
		c-6.2,4.2-13.4,4.9-21.5,2.3c5-3,14-7,23-3.4C191.9,163.1,191.4,163.5,190.9,163.9z M168.1,165.7c-0.9-0.3-1.8-0.7-2.7-1.1
		c0.4-0.6,1.2-1.5,2.3-2.6c11.1,0.1,17.8-4.9,21.7-10c3,0.3,6.1,1.3,9.4,3.4c-0.6,1.1-2.4,3.9-5.4,6.5
		C183.3,157.5,173.1,162.5,168.1,165.7z M168.8,160.8c4.1-3.9,11-9.1,19.2-8.9C184.3,156.4,178.3,160.6,168.8,160.8z M165.5,156.8
		c3-5.4,9-13.7,18.3-15.6C181.4,147.1,176.2,153.9,165.5,156.8z M164.1,157.1c-0.9,0.2-1.8,0.4-2.8,0.5c0.1-0.7,0.4-2,0.8-3.5
		c9.7-6,13.2-14,14.3-20.6c2.7-1.4,5.9-2.3,9.7-2.3c-0.1,1.3-0.3,4.7-1.7,8.6C173.6,141.6,167,151.5,164.1,157.1z M175.2,134.3
		c-1.5,7.5-5.8,13.6-12.6,18.2c1.7-5.7,5.4-14,12.7-18.4C175.3,134.2,175.3,134.3,175.2,134.3z M161.2,153.4c-1,0.6-2.1,1.2-3.2,1.8
		c0-0.6-0.1-1.6-0.1-2.8c9.2-9.3,10.5-19,9.8-26.1c2.1-1.7,4.5-3.1,7.5-4.1c0.3,1.4,1,5.5,0.3,10.4
		C166.9,137.4,162.9,147.4,161.2,153.4z M157.9,150.8c0.1-6.3,1.6-16.8,8.8-23.6C167.2,133.6,165.9,142.3,157.9,150.8z M156.8,151.8
		c-0.7,0.7-1.4,1.3-2.2,2c-0.2-0.7-0.6-1.9-0.9-3.4c5.7-10.5,5.1-19.4,3-25.8c1.7-2.7,4.1-5.2,7.3-7.3c0.5,1.1,1.8,4.2,2.4,8.4
		C158.1,133.2,156.8,145.4,156.8,151.8z M153.4,148.7c-1.1-5.9-1.7-15.1,2.6-22.8C157.7,131.6,158,139.5,153.4,148.7z M151.6,140.4
		c0,3.8,0.5,7.2,1,9.8c-0.6,1.1-1.3,2.2-2,3.3c-0.3-0.5-0.8-1.3-1.4-2.3c3.8-13.1,0.5-22.3-3.3-28c1-2.6,2.5-5.2,4.7-7.7
		c0.9,1.1,3.4,4.2,5,8.9C152.5,129.6,151.6,135.3,151.6,140.4z M148.6,149.8c-2.7-5.5-6.3-15.4-3.1-25.3
		C148.9,129.8,151.7,138.1,148.6,149.8z M143.2,132.7c0,7.7,2.9,14.6,5,18.6c-0.3,1-0.6,1.9-1,2.9c-0.5-0.5-1.3-1.3-2.3-2.5
		c0.1-12.3-4.4-19.6-9-24c0.3-3.3,1.2-6.8,3.1-10.4c1,0.7,3.5,2.6,5.9,6C143.6,126.5,143.2,129.7,143.2,132.7z M135.9,129.3
		c5.1,5.2,7.8,12.3,7.9,21.2c-3.6-4.5-8.3-12.2-8.1-21.3C135.8,129.2,135.8,129.3,135.9,129.3z M134.6,129.8c0,9.9,5.5,18,9.1,22.4
		c0,1.3-0.1,2.6-0.2,4c-0.5-0.3-1.3-0.7-2.2-1.3c-2.7-13.5-9.7-19.6-15.6-22.4c-0.3-2.8-0.2-5.9,0.6-9.2c1.3,0.4,4.8,1.8,8.3,4.9
		C134.7,128.8,134.6,129.3,134.6,129.8z M140.1,154.1c-4.8-3.3-12.4-9.9-14.1-20.2C131.3,136.6,137.4,142.3,140.1,154.1z
		 M140.4,155.7c0.2,1,0.3,2,0.5,3.1c-0.7-0.1-1.8-0.4-3.2-0.9c-5.4-10.7-12.7-14.6-18.7-15.8c-1.3-3-2-6.5-2.1-10.7
		c1.2,0.1,4.2,0.4,7.8,1.9C126.3,145.1,135.3,152.4,140.4,155.7z M136.2,157.3c-5.1-1.9-12.6-5.9-16.6-13.9
		C125,144.7,131.3,148.3,136.2,157.3z M115,152.7c7.2-0.2,13.8,3.1,19.6,9.9c-5.7-0.2-15.3-1.7-21.4-9.7
		C113.8,152.7,114.4,152.7,115,152.7z M135.6,163.7c0.6,0.8,1.2,1.6,1.8,2.4c-0.6,0.2-1.7,0.6-3.1,1c-9.5-6.2-17.6-5.6-23.3-3.4
		c-2.5-1.9-4.7-4.5-6.6-8.1c1-0.6,3.8-2.1,7.6-2.7C118.7,162.3,129.8,163.7,135.6,163.7z M112.2,164.5c6.7-2.3,13.6-1.3,20.6,3
		c-5.3,1.2-13.7,1.8-20.7-3C112.1,164.5,112.1,164.5,112.2,164.5z M134.1,168.3c1,0.7,2,1.4,3,2.2c-0.5,0.4-1.2,0.9-2.1,1.5
		c-11.9-4.2-20.2-0.6-25.3,3.7c-2.4-1.1-4.7-2.8-7-5.2c1-1,3.8-3.7,8-5.5C118.8,170.9,128.6,169.7,134.1,168.3z M133.8,172.8
		c-5,3-14,6.9-22.9,3.4C115.7,172.5,123.2,169.4,133.8,172.8z M135.1,173.3c0.9,0.3,1.7,0.7,2.6,1.1c-0.4,0.6-1.2,1.5-2.3,2.6
		c-11.1-0.1-17.8,4.9-21.7,10c-3-0.3-6.1-1.3-9.4-3.4c0.6-1.1,2.4-3.9,5.4-6.5C119.9,181.5,130.1,176.5,135.1,173.3z M115.2,186.9
		c4.7-5.7,11.2-8.6,19.2-8.7c-4.1,4-11,9.1-19.3,8.9C115.1,187,115.2,186.9,115.2,186.9z M137.7,182.2c-3,5.4-9,13.7-18.3,15.6
		C121.8,191.9,126.9,185.1,137.7,182.2z M139.1,181.9c0.9-0.2,1.8-0.4,2.8-0.5c-0.1,0.7-0.4,2-0.8,3.5c-9.7,6-13.2,14-14.3,20.6
		c-2.7,1.4-5.9,2.3-9.7,2.3c0.1-1.3,0.3-4.7,1.7-8.6C129.5,197.4,136.2,187.4,139.1,181.9z M140.6,186.5
		c-1.7,5.7-5.4,13.9-12.6,18.3C129.1,198.9,132.4,191.9,140.6,186.5z M141.9,185.6c1-0.6,2.1-1.2,3.2-1.8c0,0.6,0.1,1.6,0.1,2.8
		c-7.8,7.9-10,16.1-10,22.6c0,1.2,0.1,2.3,0.2,3.4c-2.1,1.7-4.5,3.1-7.5,4.1c-0.3-1.4-1-5.5-0.3-10.5
		C136.3,201.6,140.3,191.6,141.9,185.6z M145.3,188.2c-0.1,6.3-1.5,16.8-8.8,23.6C136,205.3,137.3,196.6,145.3,188.2z M146.4,187.1
		c0.7-0.7,1.4-1.3,2.2-2c0.2,0.7,0.6,1.9,0.9,3.4c-3.3,6.2-4.5,11.8-4.5,16.6c0,3.5,0.6,6.5,1.4,9.2c-1.7,2.7-4.1,5.2-7.3,7.3
		c-0.5-1.2-1.8-4.2-2.4-8.4C145.1,205.8,146.4,193.6,146.4,187.1z M149.8,190.3c1.1,5.9,1.7,15.1-2.6,22.8
		C145.5,207.3,145.2,199.5,149.8,190.3z M150.5,188.8c0.6-1.1,1.3-2.2,2-3.3c0.3,0.5,0.8,1.3,1.3,2.3c-1.2,4.1-1.7,7.8-1.7,11.2
		c0,7.3,2.4,12.9,5,16.8c-1,2.6-2.5,5.2-4.7,7.7c-0.9-1.1-3.4-4.2-5-8.9C152.9,205.7,151.8,194.9,150.5,188.8z M154.6,189.2
		c2.7,5.5,6.3,15.4,3.1,25.3C154.3,209.2,151.5,200.9,154.6,189.2z M155.1,187.7c0.3-1,0.6-1.9,1-2.9c0.5,0.5,1.3,1.3,2.3,2.5
		c0,0.2,0,0.3,0,0.5c0,12,4.5,19.2,9,23.5c-0.3,3.3-1.2,6.8-3.1,10.4c-1-0.7-3.5-2.6-5.9-6C162.4,204.5,158,193.2,155.1,187.7z
		 M184.5,232.6c0-0.1,0.1-0.1,0.1-0.2c2.9-0.1,5.8-0.6,8.6-1.6c-0.9,3.6-2.4,7.1-4.3,10.3c-3.5,0-6.9-0.6-10.2-1.8
		C180.9,237.5,182.9,235.2,184.5,232.6z M212.4,230.5c-6,6.6-13.8,10.3-22.2,10.7c1.9-3.4,3.4-7,4.2-10.8c3.9-1.6,7.6-4.1,10.8-7.6
		c5.7-6.3,8.6-14.6,8.7-23c2.6-0.9,5-2.1,7.2-3.6C223.7,208.2,220.8,221.2,212.4,230.5z M221.8,194.5c-0.7-2.8-1.7-5.5-3-8
		c5-5.9,8-13.8,8-22.4c0-5.2-1.1-10.1-3-14.5c1.7-3.4,3-7.2,3.7-11.1c5.8,6.6,9.4,15.6,9.4,25.4
		C236.9,176.6,230.9,187.9,221.8,194.5z M221.1,110c4.8,7.6,6.8,16.8,5.7,26c-2.6-2.7-5.7-4.9-8.9-6.5c-0.7-4.5-2.4-9-4.9-13
		c-2.7-4.2-6.1-7.6-10-9.9c-0.4-3.9-1.3-7.8-2.7-11.5C208.8,96.9,216.2,102.2,221.1,110z M180.3,75.9c7.9,3.2,14.3,9.4,18.1,17.7
		c-3.6-0.5-7.2-0.4-10.7,0.3c-3-3.3-6.6-5.8-10.7-7.5c-4.3-1.7-8.8-2.3-13.3-1.8c-2.3-3-5.1-5.6-8.2-7.7
		C163.3,73,172.1,72.6,180.3,75.9z M129.1,73.8c8.1-2.4,16.6-1.3,24,3c-3.2,1.9-6.1,4.3-8.6,7.1c-4.2-0.8-8.5-0.6-12.7,0.7
		c-4.5,1.3-8.5,3.8-11.8,6.9c-3.5-1-7.1-1.3-10.7-1.1C113.7,82.2,120.7,76.3,129.1,73.8z M86.1,104.5c5.6-7.3,13.2-11.6,21.2-12.8
		c-1.7,3.6-2.8,7.4-3.4,11.3c-3.8,2-7.2,4.8-10.1,8.6c-2.9,3.9-5,8.4-6.1,13.1c-3.3,1.4-6.5,3.4-9.3,5.9
		C77.8,121.2,80.5,111.9,86.1,104.5z M66.8,156.9c0.7-9.3,4.6-17.7,10.8-23.9c0.5,3.9,1.5,7.8,3.1,11.4c-2.1,4-3.5,8.6-3.8,13.5
		c-0.1,1-0.1,1.9-0.1,2.9c0,4.1,0.7,8.1,2,11.7c-2,3.2-3.5,6.8-4.6,10.7C68.7,175.8,66.1,166.5,66.8,156.9z M78.3,212.1
		c-4.2-8.1-5.5-17.4-3.6-26.4c2.5,3,5.3,5.4,8.4,7.4c0.4,4.6,1.6,9.2,3.9,13.5c2.3,4.5,5.5,8.1,9.2,10.8c0,3.9,0.7,7.8,1.8,11.6
		C89.6,226.3,82.6,220.4,78.3,212.1z M116.3,250c-7.9-4.1-13.6-11.1-16.6-19.4c3.5,0.9,7.1,1.1,10.6,0.7c2.7,3.6,6.1,6.5,10.2,8.6
		c4.2,2.2,8.7,3.2,13.2,3.1c2.1,3.2,4.6,6,7.5,8.3C133,254.5,124.1,254,116.3,250z M143.4,251.7c3.3-1.5,6.4-3.6,9-6.1
		c4.1,1.2,8.5,1.4,12.8,0.6c4.6-0.9,8.8-2.9,12.4-5.8c3.3,1.3,6.9,2,10.5,2.1c-5.1,7.8-12.5,12.9-21.1,14.6
		C158.5,258.6,150.2,256.5,143.4,251.7z"/>
	<path class="st1" d="M179.1,329.1c16.5-3.2,30.3-13.7,39.1-27.9c15.1-0.2,30.2-6.6,41.7-19.4c15.4-17,20.7-41.1,15.7-63
		c16.8-11.7,28-32.5,28-56c0-18.5-6.9-35.3-18-47.3c2.6-17.2-1-34.5-10-48.7c-9.6-15.2-24-24.5-39.4-27.3
		C229.6,24.5,218,12.1,202.7,6c-15.7-6.3-32.4-4.9-46.4,2.5C142.5,0,126.6-2.2,111.3,2.3c-16.2,4.8-29,16.5-36.7,31.5
		c-15.7,1.7-29.9,10-40,23.3c-9.1,12-14,26.9-14,42.4c0,2,0.1,3.9,0.2,5.9c0,0.2,0,0.5,0.1,0.7C8.9,117.5,1.6,133.2,0.2,150.6
		c-0.2,2-0.2,3.9-0.2,5.8c0,16.3,5.4,31.4,14.5,43c-1.2,5.4-1.9,10.9-1.9,16.5c0,11.2,2.6,22.6,8,33c8,15.3,20.9,26.3,36.4,30.8
		c0.2,0.1,0.4,0.1,0.7,0.2c5.3,15.6,16,29,30.7,36.6c15.2,7.8,31.9,8,46.5,1.9C147.4,327.9,163,332.2,179.1,329.1z M178.9,327.9
		c-15.5,3-30.7-1-42.8-9.9c3.2-1.4,6.2-3.1,9.1-5.1c9.9,4.8,21,6.3,31.9,4.2c11.4-2.2,21.6-8.1,29.6-16.9c3.4,0.7,6.8,1,10.2,1.1
		C208.2,314.8,194.9,324.8,178.9,327.9z M127.3,310.1c2.8-0.6,5.5-1.5,8.3-2.6c0.2-0.1,0.4-0.2,0.5-0.2c2.5,1.9,5.2,3.6,7.9,5
		c-2.9,1.9-5.9,3.5-9,4.9C132.3,315.1,129.7,312.7,127.3,310.1z M109.6,275.4c2.1,13.3,7.7,24.9,15.5,34
		c-10.7,1.9-21.6,0.3-31.7-4.9c-9.6-5-17.6-12.7-23.1-22.5c11.2,0.5,22.2-2.5,32.1-8.8l-0.5-1c-9.9,6.3-21.1,9.3-32.3,8.7
		c-1.5-2.8-2.8-5.8-3.9-8.9c12,3.1,24.9,1.8,36.7-4.5l0.7,2.2l8.2-3.3l-3-9l-8.2,3.3l1.9,5.7c-11.8,6.3-24.8,7.5-36.8,4.2
		c0,0,0-0.1,0-0.1c-5-15.1-4.3-31.5,1.8-46.1l-1-0.5c-3.5,8.3-5.2,17.1-5.2,25.9c0,6.9,1.1,13.7,3.2,20.4c-2.9-0.9-5.7-2-8.5-3.4
		c-0.5-3.4-0.8-6.9-0.8-10.4c0-9.2,1.8-18.5,5.5-27.4l-1-0.5c-3.8,9-5.6,18.5-5.6,27.9c0,3.3,0.2,6.5,0.7,9.8
		c-9.5-5.1-17.7-13.2-23.4-24c-4.9-9.5-7.3-19.8-7.3-30c0-1,0-2,0.1-3c8.7,7.2,19.2,12,30.9,13.1l0.1-1.2
		c-11.7-1.1-22.2-6-30.9-13.3c0.2-3.3,0.7-6.6,1.4-9.8c8.2,10.1,19.4,17.2,32.3,19.6l-0.9,3.6l8.4,2.5l2.2-9.3l-8.4-2.5l-1.1,4.6
		c-12.9-2.3-24.1-9.6-32.2-19.8c3.6-14.9,12.4-28.4,25.4-36.7l-0.5-1c-13.1,8.3-21.9,21.7-25.7,36.6c-1.9-2.6-3.7-5.3-5.2-8.2
		c5-11.3,12.9-21.1,23.5-27.9l-0.5-1C32,165.2,24,174.9,19,186.1c-5.1-10.1-7.6-22-6.6-34.4c0.9-11.9,5-22.7,11.2-31.6
		c3.4,11.7,9.7,22.1,18.5,30.2l0.7-0.9c-8.8-8.1-15.1-18.6-18.4-30.4c1.9-2.6,4-5,6.3-7.2c1.5,13.7,7.1,26.8,16.7,36.9l-3.4,3.1
		l5.6,7.3l6.6-6.2l-5.6-7.3l-2.5,2.3c-9.6-10.1-15.2-23.4-16.6-37.1c10.7-10,24.9-15.4,39.9-14l0-0.5l7.3-0.7L78,86.3l-2.6,0.2
		c-2.9-14.4-1-29.2,5.5-42.1c0,0,0.1,0,0.1,0c14.2-1.4,27.9,3.3,39,13.1l-0.5,0.9l7.5,4.8l4.3-8.3l-2.3-1.4
		c5-14.1,14.4-25.5,26.7-32.2c12.1,7.7,21.5,20.4,25.5,36.4l-1.5,0.8l3.7,8.7l7.9-4l-1.4-3.3c11.9-9.1,26-12.2,39.3-9.9
		c5.9,14,7,30.5,1.9,46.1l1,0.4c5.2-15.7,4.2-32.2-1.6-46.3c3,0.6,5.9,1.4,8.7,2.6c2.7,12.1,2.4,25.3-1.8,37.9l1,0.4
		c4.2-12.6,4.6-25.7,2-37.8c9.8,4.1,18.7,11.5,25.1,21.7c6.1,9.6,9.4,20.7,9.8,32.1c-9.2-6.4-20.1-10.1-31.8-10.1v1.2
		c11.7,0,22.7,3.8,31.9,10.4c0,3.3-0.2,6.7-0.6,10c-9.9-10.2-23.1-16.5-37.6-16.6l0.5-3.4l-8.5-1.7l-1.5,9.4l8.5,1.7l0.8-4.9
		c14.6,0.1,27.8,6.4,37.6,16.8c0,0,0,0.1,0,0.1c-2.5,15.8-10.5,29.7-22.4,38.9l0.6,1c12-9.3,20-23.1,22.7-38.9
		c2.1,2.4,4.1,4.9,5.8,7.6c-4.2,12-11.5,22.4-21.2,29.9l0.6,1c9.7-7.5,17-17.8,21.3-29.7c5.9,9.6,9.3,21.2,9.3,33.7
		c0,18.2-7.4,34.6-19,45.7c-2.9-7.4-7.1-14.4-12.6-20.5l-0.7,0.8c5.5,6.1,9.7,13,12.5,20.5c-1.7,1.5-3.5,3-5.3,4.3
		c-2.5-10-7.2-19.5-14.3-27.3l-0.7,0.8c7,7.8,11.8,17.2,14.1,27.1c-8.3,5.6-18,8.8-28.4,8.8v1.2c10.5,0,20.3-3.2,28.7-8.8
		c0.5,2.3,0.9,4.7,1.2,7.1c-7.1,3.4-14.9,5.2-23.1,5.2v1.2c8.2,0,16.1-1.8,23.2-5.2c1.6,17.4-3.7,35.3-15.7,48.6
		c-7.7,8.5-17.1,13.9-27,16.3c4.1-11.2,5.5-23.7,3.5-36.4l-1,0.2c2,12.8,0.5,25.3-3.7,36.5c-2.9,0.6-5.9,1-8.9,1.1
		c7.7-13.1,10.6-28.7,8.2-44.1l-1,0.2c2.5,15.4-0.5,31-8.4,44c-14,0-28-5.8-38.7-17.6l-0.7,0.8c10.7,11.8,24.7,17.8,38.7,17.9
		c-1.7,2.7-3.7,5.3-5.7,7.6c-11.2-2.4-21.9-8.3-30.5-17.9l-0.7,0.8c8.6,9.5,19.2,15.5,30.4,18c-7.8,8.3-17.6,13.9-28.5,16.1
		c-10.5,2-21,0.7-30.6-3.8c9.2-6.5,16.9-15.9,21.8-27.6l-1-0.5c-5,11.8-12.7,21.1-22,27.5c-2.7-1.3-5.3-2.9-7.8-4.8
		c12.5-5.5,22.6-15.7,28.7-28.9l2.7,2.1l5-7.8l-7.1-5.5l-5,7.9l3.5,2.7c-6.1,13.3-16.3,23.4-28.9,28.8c0,0-0.1,0-0.1-0.1
		c-11.9-9.2-19.9-23-22.4-38.9l-1,0.2c2.5,15.9,10.5,29.8,22.4,39.2c-2.8,1.1-5.7,2-8.6,2.6c-7.9-9-13.6-20.7-15.7-34L109.6,275.4z
		 M55.8,268.2c2.8,1.4,5.7,2.5,8.7,3.3c1.1,3.2,2.4,6.3,3.9,9.2c-3.3-0.3-6.7-0.8-10-1.7C57.3,275.5,56.4,271.9,55.8,268.2z
		 M23,206.9c-2.6-2.4-5.1-5-7.3-7.8c0.9-3.6,2-7.1,3.4-10.5c1.6,2.9,3.4,5.7,5.4,8.3C23.7,200.2,23.2,203.5,23,206.9z M22.1,106.5
		c2.6-2.4,5.4-4.5,8.2-6.4c-0.1,1.4-0.1,2.8-0.1,4.3c0,2,0.1,4,0.3,6.1c-2.3,2.2-4.5,4.7-6.5,7.3c-0.9-3.6-1.6-7.3-2-11.1
		C22,106.6,22.1,106.5,22.1,106.5z M65.2,90.4c-11.8-1.1-23.4,1.5-33.6,7.6c1.1-11.5,5.2-22.8,12.4-32.3c6.8-9,15.7-15.4,25.6-18.8
		c-1.7,6.2-2.6,12.7-2.6,19.4c0,5.7,0.7,11.4,2.1,17.1l1-0.3c-3-12.5-2.5-25.1,0.8-36.6c2.9-0.9,5.8-1.6,8.9-1.9
		c-4.3,9-6.6,18.8-6.6,28.8c0,4.4,0.4,8.8,1.3,13.2l-5,0.5l0.7,8.6c-14.5-1-28.1,4.3-38.6,13.8c-0.3-3.4-0.3-6.7,0-10.1
		c10.2-6.3,21.8-9,33.7-7.9L65.2,90.4z M75.4,34.8c3.4-0.3,6.7-0.3,10.1,0c-1.8,2.5-3.5,5.1-4.9,8c-0.1,0.2-0.2,0.4-0.3,0.6
		c-3.1,0.3-6.1,1-9.1,1.8c1.1-3.6,2.5-7,4.1-10.3C75.3,34.9,75.4,34.8,75.4,34.8z M119.1,48.9c-9.1-8.4-20-13.6-31.5-15.1
		c7.1-9,16.4-15.4,27-18.6c10.5-3.1,21-2.6,30.6,0.8c-8.6,7.4-15.4,17.4-19.4,29.5l1,0.4c4-12.1,10.9-22.2,19.6-29.4
		c2.9,1.1,5.6,2.4,8.3,4c-12.2,6.8-21.6,18.2-26.6,32.3l-4.3-2.7l-3.3,6.4c-11.1-9.8-24.8-14.5-39-13.3c1.5-2.9,3.3-5.7,5.2-8.3
		c11.6,1.3,22.5,6.4,31.7,14.9L119.1,48.9z M184.8,49.1c-3.1-12.7-9.3-23.8-18-32.3c10.5-2.9,21.4-2.3,31.8,1.9
		c10.2,4.1,18.6,11.2,24.7,20.1c-10.9,0.6-21.7,4.5-31.2,11.9l0.6,1c9.6-7.4,20.5-11.2,31.4-11.7c1.8,2.7,3.4,5.6,4.7,8.6
		c-13.3-2.1-27.3,1.1-39.2,10.1l-1.8-4.3l-5.4,2.8c-4-15.9-13.3-28.7-25.3-36.5c2.8-1.4,5.7-2.6,8.6-3.5
		c8.8,8.4,15.1,19.5,18.2,32.2L184.8,49.1z M235.4,40.6c1.4,3.4,2.6,6.9,3.5,10.6c-2.9-1.1-5.9-1.9-9-2.5c-1.3-3.1-2.9-6.1-4.7-8.9
		C228.7,39.8,232.1,40,235.4,40.6z M156.4,19.7c-0.2,0.1-0.4,0.2-0.6,0.3c-2.7-1.7-5.5-3.1-8.4-4.3c2.8-2.2,5.7-4.2,8.8-5.8
		c0,0,0.1,0,0.1,0.1c2.9,1.9,5.7,4,8.3,6.4C161.8,17.2,159.1,18.3,156.4,19.7z M284.4,116.1c-0.6,3.7-1.5,7.3-2.6,10.8
		c-1.8-2.7-3.8-5.3-6-7.7c0.5-3.4,0.8-6.8,0.8-10.2c2.8,2.1,5.4,4.5,7.9,7C284.4,116.1,284.4,116.1,284.4,116.1z M272,210.6
		c0.9,2.5,1.7,5.1,2.3,7.7c-2.1,1.4-4.3,2.7-6.6,3.9c-0.3-2.4-0.7-4.9-1.2-7.2C268.5,213.7,270.3,212.2,272,210.6z M207.6,299.2
		c2-2.3,3.8-4.7,5.4-7.3c0.1-0.2,0.2-0.4,0.3-0.6c3.1,0,6.1-0.4,9.1-1c-1.4,3.4-3,6.6-4.9,9.7C214.2,300.1,210.9,299.8,207.6,299.2z
		 M259.1,281c-11.1,12.3-25.6,18.6-40.2,19c1.9-3.2,3.5-6.5,4.9-10c10.4-2.3,20.2-7.9,28.2-16.7c12.3-13.6,17.6-32.1,15.9-49.9
		c2.3-1.1,4.6-2.4,6.7-3.9C279.3,240.9,274.2,264.4,259.1,281z M275.3,217.7c-0.6-2.7-1.5-5.3-2.4-7.9c12-11.3,19.6-28.1,19.6-46.8
		c0-13-3.7-25.1-9.9-35c1.2-3.6,2.1-7.2,2.8-11c10.6,11.8,17.2,28,17.2,45.9C302.5,185.9,291.7,206.2,275.3,217.7z M274.7,67.5
		c8.8,13.8,12.3,30.5,10,47.1c-2.5-2.6-5.2-5-8.1-7.1c-0.3-11.9-3.7-23.5-10-33.5c-6.8-10.6-16-18.2-26.3-22.4
		c-0.9-3.7-2-7.3-3.5-10.8C251.5,43.7,265.4,52.9,274.7,67.5z M202.3,7.1c14.8,5.9,26.1,17.8,32.6,32.2c-3.4-0.5-6.9-0.8-10.4-0.6
		c-6.3-9.3-15-16.8-25.6-21.1c-10.8-4.3-22.3-4.9-33.1-1.7c-2.6-2.5-5.4-4.7-8.5-6.7C171,2.2,187.1,1,202.3,7.1z M111.6,3.4
		c14.7-4.4,30.1-2.3,43.5,5.7c-3.1,1.7-6.1,3.8-8.9,6.1c-10-3.7-21-4.3-31.9-1.1c-11.1,3.3-20.8,10.1-28,19.6
		c-3.4-0.4-6.9-0.4-10.4-0.1C83.5,19.3,96,8,111.6,3.4z M35.4,57.8C45.2,44.9,58.9,36.8,74,35c-1.6,3.4-3,6.9-4.1,10.6
		c-10.4,3.4-19.6,10-26.8,19.4c-7.5,9.9-11.7,21.7-12.7,33.7c-3,1.9-5.9,4.1-8.6,6.5C20.5,87.9,25.3,71.1,35.4,57.8z M1.3,150.7
		c1.3-16.8,8.3-32,19.7-43.1c0.4,3.9,1.1,7.6,2.1,11.3c-6.6,9.1-10.9,20.4-11.9,32.8c-0.1,1.8-0.2,3.6-0.2,5.4
		c0,11,2.7,21.4,7.3,30.4c-1.5,3.4-2.7,7-3.6,10.7C5.1,185.3-0.1,168.5,1.3,150.7z M21.5,248.3c-5.3-10.2-7.9-21.4-7.9-32.4
		c0-5.2,0.6-10.4,1.7-15.4c2.3,2.8,4.8,5.5,7.5,7.8c-0.1,1.3-0.1,2.6-0.1,3.9c0,10.4,2.4,21,7.4,30.6c5.9,11.3,14.5,19.7,24.5,24.8
		c0.6,3.7,1.4,7.4,2.6,11C42.1,274.1,29.4,263.4,21.5,248.3z M88.9,315.5c-14.2-7.3-24.6-20.2-29.9-35.2c3.4,0.9,6.8,1.4,10.2,1.6
		c5.6,10.2,13.9,18.4,23.9,23.6c10.4,5.4,21.9,7,33,4.9c2.4,2.7,5,5.1,7.8,7.3C119.7,323.4,103.5,323.1,88.9,315.5z"/>
	<polygon class="st1" points="249.9,172.7 256.1,165.9 249.9,159.2 243.8,165.9 	"/>
	<rect x="225.2" y="231.5" class="st1" width="8.7" height="9.6"/>
	<path class="st1" d="M233.5,196l0,0.4c-0.1,0.8-0.1,1.5-0.1,2.2c0,3.8,1.1,6.8,3.2,9.1c5.9,6.1,17.6,3.9,18.1,3.8l0.6-0.1l-0.2-0.6
		c-1.9-6.9-5-11.6-9.3-14c-5.9-3.2-11.8-0.9-12-0.8L233.5,196z M245.4,197.7c3.9,2.1,6.8,6.4,8.6,12.6c-2.4,0.4-11.8,1.4-16.6-3.6
		c-2.2-2.3-3.2-5.6-2.8-9.9C235.7,196.5,240.6,195.1,245.4,197.7z"/>
	<path class="st1" d="M234.7,138.6l-0.1,0.4l0.3,0.2c3.6,2.9,7.1,3.7,10.4,2.6c7.7-2.6,11.8-15,12-15.5l0.2-0.6l-0.6-0.1
		c-6.4-1.6-11.6-1-15.6,2C235.8,131.5,234.7,138.3,234.7,138.6z M256,126.5c-0.9,2.5-4.8,12-11.1,14.1c-2.9,1-6,0.2-9.2-2.2
		c0.3-1.4,1.7-6.7,6.1-10C245.5,125.8,250.2,125.1,256,126.5z"/>
	<path class="st1" d="M205.9,74.6c-3.2,4.2-3.6,9.1-3.6,11.4c0,0.7,0,1.2,0.1,1.3l0,0.4l0.3,0.1c4.1,1.7,7.7,1.5,10.6-0.6
		c6.8-4.8,7.7-17.9,7.7-18.5l0-0.7l-0.6,0C214,68.3,209.1,70.5,205.9,74.6z M212.8,86.1c-2.6,1.8-5.7,2-9.4,0.6
		c-0.1-1.4-0.1-7,3.4-11.4c2.8-3.7,7.3-5.7,13.2-6.1C219.7,71.9,218.3,82.2,212.8,86.1z"/>
	<path class="st1" d="M153.4,68.7l0.3-0.1c4.2-1.5,6.9-4.1,8-7.7c2.6-8.4-3.9-19.4-4.2-19.8l-0.3-0.5l-0.4,0.4
		c-5,4.7-7.6,9.8-7.8,15.1c0,0.2,0,0.5,0,0.7c0,6.9,4.1,11.6,4.2,11.8L153.4,68.7z M150,56.1c0.2-4.8,2.5-9.5,7-13.8
		c1.3,2.3,5.9,11.4,3.8,18.2c-1,3.2-3.4,5.5-7,6.9C152.8,66.3,149.7,61.9,150,56.1z"/>
	<path class="st1" d="M104.2,72.5c-2.6-8.4-13.9-12.6-14.4-12.8l-0.6-0.2l-0.1,0.6c-0.4,2.2-0.6,4.3-0.6,6.3c0,4.3,1,7.9,2.9,10.9
		c3.8,5.9,10,6.9,10.3,6.9l0.3,0l0.2-0.3C104.6,80,105.3,76.1,104.2,72.5z M92.3,76.7c-2.5-3.9-3.3-9.2-2.2-15.6
		c2.3,1,11,4.9,13.1,11.8c1,3.2,0.4,6.6-1.7,10.2C100.2,82.8,95.3,81.4,92.3,76.7z"/>
	<path class="st1" d="M67.8,129.1l0-0.4c-0.3-4.8-1.9-8.4-4.8-10.5c-6.8-4.9-18-0.5-18.4-0.3l-0.6,0.2l0.3,0.6
		c2.9,6.5,6.8,10.5,11.4,12c6.3,2.1,11.7-1.4,11.9-1.5L67.8,129.1z M55.9,129.7c-4.2-1.4-7.7-5-10.4-10.8c2.4-0.8,11.4-3.6,16.9,0.4
		c2.6,1.8,4,4.9,4.3,9.2C65.6,129.1,61,131.3,55.9,129.7z"/>
	<path class="st1" d="M62.3,184.5l0.1-0.3l-0.2-0.3c-2.9-3.6-6.2-5.3-9.7-5c-8.1,0.8-14.4,11.9-14.7,12.3l-0.3,0.6l0.5,0.3
		c5.9,3.1,11.2,3.7,15.7,1.7C59.8,191.2,62.2,184.8,62.3,184.5z M39.1,191.3c1.4-2.2,7-10.6,13.5-11.2c3-0.3,5.9,1.2,8.6,4.3
		c-0.6,1.3-2.9,6.2-7.8,8.4C49.3,194.5,44.5,194,39.1,191.3z"/>
	<path class="st1" d="M89.5,252.2c3.3-6.3,1.6-12.9,1.5-13.2l-0.1-0.3l-0.3-0.1c-4.3-0.9-7.8,0-10.4,2.7c-4.2,4.3-4.8,12.1-4.8,16.5
		c0,1.8,0.1,3.1,0.1,3.2l0.1,0.7l0.6-0.1C82.6,259.9,87,256.7,89.5,252.2z M81,242.1c2.2-2.3,5.3-3.1,9.1-2.4
		c0.3,1.4,1.2,6.9-1.5,11.9c-2.2,4.1-6.3,7-12,8.6C76.4,257.4,76.1,247,81,242.1z"/>
	<path class="st1" d="M134.7,272.6c0,8.2,7.1,16.4,7.4,16.8l0.4,0.5l0.4-0.5c4.1-5.6,5.9-11.1,5.3-16.4c-0.9-7.2-5.9-11.3-6.1-11.4
		l-0.3-0.2l-0.3,0.2c-3.9,2.3-6.1,5.3-6.7,9.2C134.7,271.3,134.7,272,134.7,272.6z M141.7,262.8c1,0.9,4.7,4.6,5.4,10.4
		c0.6,4.8-1,9.8-4.7,14.9c-1.6-2-7.6-10.1-6.6-17.2C136.3,267.6,138.3,264.8,141.7,262.8z"/>
	<path class="st1" d="M202.7,279.3l0.4,0.5l0.4-0.5c4.2-5.6,5.9-11.1,5.3-16.4c-0.9-7.2-5.9-11.3-6.1-11.4l-0.3-0.2l-0.3,0.2
		c-3.9,2.3-6.1,5.3-6.7,9.2c-0.1,0.6-0.1,1.3-0.1,1.9C195.3,270.7,202.4,278.9,202.7,279.3z M202.3,252.7c1,0.9,4.7,4.6,5.4,10.4
		c0.6,4.8-1,9.8-4.7,14.9c-1.6-2-7.6-10.1-6.6-17.2C196.9,257.5,198.9,254.7,202.3,252.7z"/>
	<path class="st1" d="M250.5,208.1c-1.2-6.7-13.1-9.4-13.1-9.4C239.6,208.8,250.5,208.1,250.5,208.1z"/>
	<path class="st1" d="M237.1,138.8c9.2,1.9,13.1-9.3,13.1-9.3C244.2,128,237.1,138.8,237.1,138.8z"/>
	<path class="st1" d="M204.8,85.7c9.4,0.1,11.4-11.8,11.4-11.8C210,73.6,204.8,85.7,204.8,85.7z"/>
	<path class="st2" d="M156.3,48.1c-5,3.9-2.4,17-2.4,17C161.3,58.9,156.3,48.1,156.3,48.1z"/>
	<path class="st1" d="M93.3,65.5c-1.8,6.5,7.6,15.1,7.6,15.1C103.3,70.5,93.3,65.5,93.3,65.5z"/>
	<path class="st1" d="M50.8,120.5c2.2,6.3,14.4,6.7,14.4,6.7C61.4,117.8,50.8,120.5,50.8,120.5z"/>
	<path class="st1" d="M44.7,189.4c5.3,3.5,15.1-4.5,15.1-4.5C51.6,180,44.7,189.4,44.7,189.4z"/>
	<path class="st1" d="M88.2,241.5c-9.2,1.7-9.4,13.8-9.4,13.8C84.9,254.5,88.2,241.5,88.2,241.5z"/>
	<path class="st1" d="M142.5,282c4.3-4.8-0.3-17.2-0.3-17.2C135.8,272.4,142.5,282,142.5,282z"/>
	<path class="st1" d="M200.8,272.1c4.9-4.1,1.8-17.1,1.8-17.1C195.4,261.6,200.8,272.1,200.8,272.1z"/>
</g>
</svg>
