<svg width="18" height="18" viewBox="0 0 18 18" fill="none" xmlns="http://www.w3.org/2000/svg">
<path fill-rule="evenodd" clip-rule="evenodd" d="M0.527208 0.527208C1.23015 -0.175736 2.36985 -0.175736 3.07279 0.527208L17.4728 14.9272C18.1757 15.6302 18.1757 16.7698 17.4728 17.4728C16.7698 18.1757 15.6302 18.1757 14.9272 17.4728L0.527208 3.07279C-0.175736 2.36985 -0.175736 1.23015 0.527208 0.527208Z" fill="#04193B"/>
<path fill-rule="evenodd" clip-rule="evenodd" d="M17.4728 0.527208C16.7698 -0.175736 15.6302 -0.175736 14.9272 0.527208L0.527209 14.9272C-0.175736 15.6302 -0.175736 16.7698 0.527209 17.4728C1.23015 18.1757 2.36985 18.1757 3.07279 17.4728L17.4728 3.07279C18.1757 2.36985 18.1757 1.23015 17.4728 0.527208Z" fill="#04193B"/>
</svg>
