<?xml version="1.0" encoding="utf-8"?>
<!-- Generator: Adobe Illustrator 25.2.0, SVG Export Plug-In . SVG Version: 6.00 Build 0)  -->
<svg version="1.1" id="Capa_1" xmlns="http://www.w3.org/2000/svg" xmlns:xlink="http://www.w3.org/1999/xlink" x="0px" y="0px"
	 viewBox="0 0 800 650.2" style="enable-background:new 0 0 800 650.2;" xml:space="preserve">
<style type="text/css">
	.st0{fill:#FFD700;}
</style>
<g>
	<path class="st0" d="M718.2,161.9c0.3,7,0.5,14,0.5,21.2c0,216.9-165.1,467-467,467c-92.8,0-179-27.1-251.6-73.7
		c12.9,1.5,26,2.2,39.1,2.2c77,0,147.7-26.1,203.8-70.2c-71.8-1.4-132.4-48.8-153.3-114c10,1.9,20.3,3,30.9,3c15,0,29.5-2,43.2-5.8
		c-75-15.1-131.7-81.4-131.7-160.9c0-0.7,0-1.4,0-2.1c22.2,12.3,47.5,19.7,74.4,20.5c-44-29.4-73-79.7-73-136.6
		c0-30.1,8.1-58.3,22.2-82.5c80.9,99.3,201.9,164.7,338.3,171.5c-2.8-12-4.3-24.5-4.3-37.4C389.8,73.5,463.3,0,554,0
		c47.2,0,89.8,19.9,119.7,51.8c37.4-7.3,72.5-21,104.3-39.8c-12.3,38.3-38.3,70.5-72.2,90.8C739,98.8,770.6,90,800,76.9
		C778,109.9,750.2,138.8,718.2,161.9z"/>
</g>
</svg>
